# xmcd
#
# Track frame offsets: 
#        150
#        13767
#        25972
#        35380
#        45155
#        65845
#        76397
#        86512
#        97110
#        105480
#
# Disc length: 1526 seconds
#
# Revision: 1
# Processed by: cddbd v1.4PL0 Copyright (c) Steve Scherf et al.
# Submitted via: ExactAudioCopy v0.90b4
#
DISCID=7405f40a
DTITLE=Various Artist - Country Road
DYEAR=1900
DGENRE=Country
TTITLE0=Johnny Paycheck - I'm The Only Hell My Momma Ever Raised
TTITLE1=Red Steagall - Truck Drivin' man
TTITLE2=Conway Twitty - This Road That I Walk
TTITLE3=Ned Miller - From A Jack To A King
TTITLE4=Freddy Fender - Six Days On The Road
TTITLE5=Kenny Rogers - Ticket To Nowhere
TTITLE6=Mickey Gilley - That's How It's Got To Be
TTITLE7=Waylon Jennings - Burnin' Memories
TTITLE8=Willie Nelson - You Wouldn't Cross The Street To Say Goodbye
TTITLE9=Mac Davis - Boys Ain't Supposed To Cry
EXTD=
EXTT0=
EXTT1=
EXTT2=
EXTT3=
EXTT4=
EXTT5=
EXTT6=
EXTT7=
EXTT8=
EXTT9=
PLAYORDER=
